<svg width="301" height="305" viewBox="0 0 301 305" fill="none" xmlns="http://www.w3.org/2000/svg">
<path d="M251.059 53.9552C258.191 61.0876 264.654 68.1754 270.448 75.2187C276.154 82.1727 281.146 89.3943 285.425 96.8833C289.615 104.283 293.003 112.129 295.588 120.42C298.173 128.533 299.823 137.315 300.536 146.765C302.23 167.895 299.288 188.222 291.71 207.747C284.133 227.094 272.41 244.702 256.541 260.572C246.646 270.468 235.859 278.67 224.181 285.178C212.591 291.597 200.557 296.412 188.076 299.621C175.595 302.653 162.936 304.079 150.099 303.901C137.351 303.633 124.87 301.85 112.657 298.552C100.354 295.164 88.5423 290.216 77.2205 283.707C65.8096 277.11 55.3793 269.086 45.9296 259.635C36.0342 249.739 27.6988 238.996 20.9236 227.406C14.2375 215.727 9.1561 203.691 5.67933 191.298C2.20256 178.727 0.375033 166.023 0.196737 153.185C0.107589 140.257 1.66768 127.553 4.877 115.071C8.08632 102.589 13.034 90.5087 19.7201 78.8294C26.3171 67.061 34.6524 56.1395 44.7261 46.065C54.6215 36.1688 65.1409 27.8774 76.2844 21.1908C87.4279 14.5042 99.0171 9.42239 111.052 5.94535C122.998 2.37916 135.3 0.417754 147.959 0.0611347C160.618 -0.295485 173.411 0.908105 186.337 3.67191L178.983 32.4243C157.32 28.0558 136.682 28.5461 117.07 33.8954C97.3679 39.1555 79.4046 49.8987 63.1797 66.1249C55.4238 73.8813 49.0052 82.4402 43.9238 91.8015C38.9315 101.074 35.2764 110.791 32.9586 120.955C30.7299 131.03 29.7492 141.282 30.0167 151.714C30.3733 162.055 31.9779 172.308 34.8307 182.472C37.7726 192.546 41.9179 202.22 47.2668 211.492C52.6157 220.764 59.168 229.278 66.9239 237.035C74.8581 244.969 83.5054 251.656 92.8659 257.095C102.226 262.533 111.944 266.723 122.017 269.665C132.091 272.429 142.343 273.945 152.773 274.212C163.293 274.391 173.589 273.276 183.663 270.869C193.826 268.373 203.632 264.539 213.082 259.368C222.442 254.108 231.134 247.466 239.158 239.442C249.053 229.546 256.898 218.49 262.693 206.276C268.576 193.973 271.964 181.402 272.855 168.564C273.836 155.636 272.276 142.843 268.175 130.183C263.985 117.433 256.898 105.62 246.913 94.7436L178.715 162.947L160.395 144.626L251.059 53.9552Z" fill="white"/>
<path d="M27.1973 305C42.218 305 54.3946 292.822 54.3946 277.801C54.3946 262.779 42.218 250.601 27.1973 250.601C12.1766 250.601 0 262.779 0 277.801C0 292.822 12.1766 305 27.1973 305Z" fill="white"/>
</svg>
